<?xml version="1.0" standalone="no"?>
<!DOCTYPE svg PUBLIC "-//W3C//DTD SVG 20010904//EN"
 "http://www.w3.org/TR/2001/REC-SVG-20010904/DTD/svg10.dtd">
<svg version="1.0" xmlns="http://www.w3.org/2000/svg"
 width="848.000000pt" height="848.000000pt" viewBox="0 0 848.000000 848.000000"
 preserveAspectRatio="xMidYMid meet">
<metadata>
Created by potrace 1.14, written by Peter Selinger 2001-2017
</metadata>
<g transform="translate(0.000000,848.000000) scale(0.100000,-0.100000)"
fill="#000000" stroke="none">
<path d="M5269 6545 c-2 -1 -51 -6 -109 -9 -58 -4 -123 -9 -145 -11 -109 -12
-228 -17 -410 -20 -127 -2 -201 -7 -203 -14 -2 -6 9 -13 25 -16 101 -22 172
-75 215 -163 l23 -47 0 -1375 c0 -1325 -1 -1377 -19 -1424 -34 -88 -112 -155
-203 -174 -20 -4 -38 -13 -41 -20 -3 -9 91 -12 422 -12 372 0 426 2 426 15 0
10 -10 15 -33 15 -70 0 -170 78 -209 164 -23 51 -23 54 -24 496 -2 444 2 509
31 659 8 42 50 152 77 204 27 51 32 55 43 40 6 -10 56 -94 110 -188 54 -93
117 -201 141 -240 42 -71 516 -882 563 -965 37 -66 113 -138 179 -168 56 -26
63 -26 290 -30 191 -3 232 -1 232 10 0 8 -12 15 -27 16 -100 8 -268 100 -351
191 -54 59 -128 180 -332 536 -9 17 -144 247 -299 513 -155 266 -284 489 -287
497 -7 17 26 24 136 30 208 12 299 26 421 66 408 133 608 420 566 811 -26 239
-156 417 -380 518 -63 28 -184 65 -247 75 -19 3 -60 9 -90 14 -51 9 -483 14
-491 6z m300 -50 c93 -8 175 -31 266 -75 175 -85 279 -226 320 -434 13 -69 14
-280 1 -336 -3 -14 -11 -47 -17 -75 -6 -27 -29 -88 -51 -135 -71 -149 -211
-262 -379 -305 -53 -14 -90 -18 -254 -29 -217 -15 -361 -136 -451 -381 l-22
-60 -1 902 0 902 32 6 c46 9 111 13 297 21 91 4 167 8 168 10 2 1 9 1 15 -1 7
-2 41 -6 76 -10z"/>
<path d="M2838 6502 c-12 -2 -7 -29 28 -155 l42 -153 -29 -104 c-15 -58 -51
-188 -79 -290 -49 -176 -83 -298 -135 -490 -13 -47 -56 -200 -95 -340 -39
-140 -89 -320 -111 -400 -111 -403 -151 -546 -154 -560 -28 -115 -131 -465
-146 -497 -25 -53 -89 -125 -143 -162 -43 -30 -120 -60 -162 -63 -13 -1 -26
-8 -28 -15 -4 -10 54 -13 294 -13 200 0 300 3 300 10 0 6 -6 12 -13 14 -6 2
-30 9 -52 15 -48 13 -86 44 -110 91 -32 60 -24 141 35 350 29 102 109 392 179
645 l128 460 346 3 c323 2 346 1 351 -15 13 -47 68 -242 101 -363 20 -74 43
-157 51 -185 56 -196 96 -342 99 -355 2 -8 27 -98 55 -200 69 -247 69 -305 0
-383 -29 -34 -74 -56 -119 -60 -12 -1 -21 -7 -21 -14 0 -11 82 -13 428 -11
278 2 426 6 425 13 -1 6 -20 12 -41 16 -106 14 -241 118 -290 221 -11 24 -47
143 -81 264 -33 120 -106 383 -161 584 -56 201 -108 388 -115 415 -67 245
-149 540 -175 630 -17 61 -33 119 -35 129 -4 16 -52 191 -85 306 -6 19 -42
150 -80 290 -39 140 -77 277 -85 304 -8 26 -15 53 -15 60 0 8 -43 11 -143 11
-79 0 -150 -1 -159 -3z m221 -857 c67 -242 140 -503 161 -580 22 -78 40 -146
40 -152 0 -8 -95 -11 -328 -12 l-329 -1 38 138 c143 523 182 665 200 726 11
38 22 77 24 86 2 9 12 48 23 86 12 38 26 89 32 113 6 23 13 41 15 40 1 -2 58
-202 124 -444z"/>
<path d="M1830 2900 l0 -30 2410 0 2410 0 0 30 0 30 -2410 0 -2410 0 0 -30z"/>
<path d="M4233 2732 c-52 -3 -52 -3 -32 -23 18 -18 19 -35 19 -288 0 -268 0
-270 -22 -285 -21 -15 -18 -16 50 -16 71 0 72 0 53 19 -19 19 -20 36 -20 306
-1 171 3 284 8 280 5 -3 12 -2 15 3 3 5 0 8 -7 8 -7 -1 -35 -2 -64 -4z"/>
<path d="M4321 2737 c3 -4 27 -8 53 -9 64 -2 107 -32 122 -83 21 -78 -15 -157
-77 -169 -16 -4 -42 -8 -58 -11 -31 -7 -71 -39 -71 -58 0 -8 3 -8 9 2 7 11 12
9 22 -10 8 -13 18 -32 24 -41 5 -9 36 -62 68 -117 32 -56 67 -105 77 -111 10
-5 38 -10 62 -10 l43 1 -31 13 c-37 16 -49 33 -143 194 -46 79 -66 124 -58
127 6 2 32 6 57 10 83 11 142 66 142 132 0 90 -50 132 -169 140 -43 3 -75 3
-72 0z"/>
<path d="M1843 2693 c1 -21 5 -41 10 -44 4 -3 14 -32 22 -65 9 -32 22 -80 30
-106 l14 -48 -60 0 c-35 0 -59 4 -59 11 0 5 12 51 26 100 14 50 24 93 21 95
-3 3 -8 -5 -11 -18 -15 -54 -27 -98 -51 -182 -14 -49 -23 -92 -20 -94 5 -5 10
8 19 51 7 28 8 28 73 25 l66 -3 29 -105 c40 -147 41 -155 23 -174 -15 -15 -10
-16 62 -15 51 0 71 3 58 9 -12 4 -26 14 -32 22 -10 11 -99 309 -118 393 -2 11
-15 57 -27 103 -21 77 -24 82 -50 82 -25 0 -27 -3 -25 -37z"/>
<path d="M2147 2718 c12 -5 24 -20 26 -32 7 -27 5 -505 -1 -529 -3 -10 -14
-23 -26 -27 -14 -6 2 -9 53 -9 l74 -1 -19 21 c-18 20 -19 40 -19 303 l0 281
-55 2 c-45 2 -51 0 -33 -9z"/>
<path d="M5040 2710 c19 -19 20 -33 20 -307 l0 -287 29 28 29 28 24 -22 c117
-111 326 20 333 210 3 72 -18 129 -66 184 -41 46 -126 88 -165 81 -10 -2 -27
-4 -37 -4 -11 -1 -34 -16 -53 -35 -38 -38 -36 -42 -36 72 l-1 72 -48 0 -49 0
20 -20z m285 -120 c22 -14 44 -42 62 -78 24 -49 28 -69 28 -142 0 -118 -37
-200 -107 -236 -48 -25 -124 -13 -161 24 l-30 30 -1 159 c-1 130 2 164 16 194
19 41 32 53 73 66 40 14 79 8 120 -17z"/>
<path d="M2485 2608 c-27 -11 -60 -29 -73 -41 -77 -72 -104 -207 -62 -305 40
-92 130 -152 229 -152 17 0 31 4 31 8 0 5 -13 7 -29 4 -102 -15 -185 81 -193
223 -3 46 -1 50 20 51 12 1 26 5 30 9 4 5 0 6 -9 3 -34 -13 -42 6 -29 63 10
41 24 65 55 97 23 23 52 43 64 43 70 4 88 1 117 -24 23 -20 27 -32 27 -72 0
-41 -4 -52 -31 -77 -26 -22 -42 -28 -78 -28 -25 0 -43 -4 -40 -9 16 -26 154
17 189 59 82 97 -76 204 -218 148z"/>
<path d="M4753 2613 c-47 -16 -113 -76 -139 -125 -10 -19 -19 -65 -22 -109 -4
-66 -1 -81 21 -125 29 -57 80 -107 134 -129 42 -18 43 -18 43 -6 0 5 -12 12
-26 15 -65 17 -114 112 -118 231 -1 30 -1 30 56 31 32 0 61 3 64 7 3 3 -20 6
-51 6 -31 0 -60 2 -63 6 -10 9 17 95 39 126 64 90 189 100 224 17 29 -71 -8
-134 -87 -144 -26 -4 -48 -10 -48 -14 0 -8 20 -7 92 9 43 9 64 20 83 42 26 32
28 39 25 79 -6 71 -130 116 -227 83z"/>
<path d="M5720 2620 c-40 -11 -106 -56 -128 -87 -59 -84 -71 -197 -29 -280 48
-93 126 -143 217 -139 62 3 104 21 140 63 l25 28 -30 -26 c-106 -93 -242 -70
-293 50 -14 34 -24 85 -26 141 l-1 25 104 2 c67 1 118 7 146 17 105 40 120
130 31 185 -34 21 -115 32 -156 21z m110 -20 c12 -6 27 -26 35 -43 31 -74 -19
-146 -103 -148 -124 -2 -154 -1 -160 5 -11 12 19 101 47 136 49 62 121 82 181
50z"/>
<path d="M6158 2614 c-123 -43 -191 -172 -164 -310 15 -74 93 -161 165 -182
45 -14 101 -16 101 -3 0 4 -11 6 -24 4 -35 -7 -95 15 -124 46 -24 26 -49 75
-59 115 -6 27 -6 145 1 171 16 68 61 128 111 149 67 28 162 -10 189 -76 13
-29 13 -28 14 26 0 53 -1 56 -22 50 -12 -3 -35 0 -51 6 -45 18 -96 19 -137 4z"/>
<path d="M6499 2620 c-23 -5 -25 -10 -28 -60 l-2 -55 18 34 c27 52 64 75 121
74 107 -1 153 -91 78 -157 -21 -18 -21 -18 5 -3 15 9 28 14 30 12 2 -2 3 -65
3 -139 -2 -153 -4 -158 -73 -189 -54 -24 -106 -16 -138 21 -13 15 -23 32 -24
37 -1 6 -3 24 -4 40 -6 44 21 108 55 134 17 12 51 31 77 42 25 11 43 22 40 26
-4 3 -12 2 -19 -4 -7 -5 -43 -22 -79 -37 -84 -35 -131 -81 -133 -133 -7 -129
142 -197 259 -117 l38 25 28 -27 c34 -33 31 -56 31 200 0 208 -3 220 -70 259
-31 18 -159 29 -213 17z"/>
<path d="M2787 2603 c29 -20 53 -45 67 -73 7 -14 30 -56 51 -94 28 -52 35 -74
28 -85 -6 -9 -29 -52 -53 -96 -52 -98 -56 -103 -94 -120 l-31 -13 53 -1 c48
-1 51 0 41 17 -10 15 -3 35 39 112 27 52 54 96 58 97 5 2 33 -42 62 -96 48
-91 51 -101 36 -115 -14 -15 -9 -16 63 -15 51 0 71 3 58 9 -11 4 -30 18 -41
31 -26 28 -134 220 -134 238 0 16 99 191 109 191 4 0 15 6 25 13 16 12 13 13
-27 13 -38 -1 -43 -3 -34 -17 10 -17 -11 -68 -65 -157 l-20 -33 -29 53 c-58
107 -63 119 -52 137 10 15 4 17 -59 17 -57 -1 -66 -3 -51 -13z"/>
<path d="M3500 2590 c23 -21 39 -62 95 -244 41 -134 64 -227 61 -241 -14 -54
-115 -133 -152 -118 -7 2 -20 -9 -29 -26 -15 -30 -15 -31 7 -31 74 0 173 98
192 191 3 13 36 122 74 241 50 157 75 222 91 235 l22 18 -35 1 c-33 1 -35 -1
-30 -22 4 -14 -15 -91 -47 -198 -52 -171 -54 -174 -66 -143 -10 27 -71 221
-79 252 -2 6 -7 24 -12 42 -7 23 -7 36 3 50 12 17 9 18 -55 18 l-68 0 28 -25z"/>
<path d="M2450 2403 c0 -5 11 -8 25 -8 14 0 25 3 25 8 0 4 -11 7 -25 7 -14 0
-25 -3 -25 -7z"/>
<path d="M1757 2323 c-3 -5 -12 -35 -21 -68 -26 -95 -36 -113 -65 -124 -23 -8
-19 -10 27 -10 49 -1 52 0 38 15 -20 20 -20 15 8 112 21 74 25 96 13 75z"/>
<path d="M2701 2176 c-13 -14 -36 -30 -52 -37 -16 -6 -28 -14 -25 -16 7 -8 60
24 85 51 14 14 22 26 19 26 -2 0 -15 -11 -27 -24z"/>
<path d="M4964 2179 c-27 -29 -67 -49 -117 -55 -58 -8 -63 -18 -5 -11 26 3 59
12 75 20 26 14 83 67 71 67 -3 0 -13 -9 -24 -21z"/>
<path d="M6354 2179 c-10 -12 -35 -30 -54 -40 -26 -15 -29 -18 -10 -13 22 5
104 74 89 74 -3 0 -14 -9 -25 -21z"/>
</g>
</svg>
