<svg xmlns="http://www.w3.org/2000/svg" version="1.1" xmlns:xlink="http://www.w3.org/1999/xlink" xmlns:svgjs="http://svgjs.com/svgjs" width="3000" height="560" preserveAspectRatio="none" viewBox="0 0 3000 560">
    <g mask="url(&quot;#SvgjsMask1019&quot;)" fill="none">
        <path d="M3050 560L0 560 L0 344.04Q113.54 207.58, 250 321.12Q369.01 290.13, 400 409.14Q514.05 273.2, 650 387.25Q722.93 210.19, 900 283.12Q1038.23 171.35, 1150 309.58Q1298.28 207.86, 1400 356.13Q1490.28 196.4, 1650 286.68Q1829.63 216.31, 1900 395.93Q1946.66 292.59, 2050 339.25Q2208.59 247.84, 2300 406.42Q2322.74 279.17, 2450 301.91Q2530.61 232.52, 2600 313.13Q2661.47 224.6, 2750 286.06Q2850.21 236.27, 2900 336.48Q2969.72 256.2, 3050 325.91z" fill="rgba(80, 113, 95, 1)"></path>
        <path d="M3100 560L0 560 L0 378.93Q73.01 301.94, 150 374.96Q301.45 276.41, 400 427.87Q557.34 335.21, 650 492.54Q682.09 374.63, 800 406.71Q954.36 311.07, 1050 465.43Q1118.96 384.39, 1200 453.35Q1238.87 342.22, 1350 381.09Q1490.38 271.47, 1600 411.84Q1665.19 327.03, 1750 392.22Q1911.19 303.41, 2000 464.6Q2112.51 327.11, 2250 439.61Q2296.48 336.09, 2400 382.57Q2515.3 347.87, 2550 463.17Q2684.53 347.71, 2800 482.24Q2832.39 364.63, 2950 397.01Q3036.72 333.73, 3100 420.45z" fill="rgba(142, 177, 157, 1)"></path>
        <path d="M3150 560L0 560 L0 585.62Q123.51 459.13, 250 582.65Q349.32 431.97, 500 531.29Q558.23 439.52, 650 497.75Q764.96 362.71, 900 477.67Q992.72 420.39, 1050 513.11Q1190.72 403.84, 1300 544.56Q1389.55 484.11, 1450 573.65Q1536.54 410.19, 1700 496.73Q1855.69 402.42, 1950 558.12Q2091.59 449.71, 2200 591.31Q2216.65 457.96, 2350 474.62Q2498.89 373.51, 2600 522.41Q2658.11 430.51, 2750 488.62Q2886.23 374.85, 3000 511.08Q3085.64 446.72, 3150 532.36z" fill="rgba(255, 255, 255, 1)"></path>
    </g>
    <defs>
        <mask id="SvgjsMask1019">
            <rect width="3000" height="560" fill="#ffffff"></rect>
        </mask>
    </defs>
</svg>