<?xml version="1.0" encoding="iso-8859-1"?>
<!-- Uploaded to: SVG Repo, www.svgrepo.com, Generator: SVG Repo Mixer Tools -->
<svg version="1.1" id="Layer_1" xmlns="http://www.w3.org/2000/svg" xmlns:xlink="http://www.w3.org/1999/xlink" 
	 viewBox="0 0 511.999 511.999" xml:space="preserve">
<path style="fill:#A5B8C4;" d="M5.321,495.975c-2.938,0-5.321-2.381-5.321-5.321v-79.051c0-22.112,17.984-40.104,40.089-40.104
	h236.425c22.107,0,40.091,17.992,40.091,40.104v79.051c0,2.939-2.381,5.321-5.321,5.321L5.321,495.975L5.321,495.975z"/>
<rect x="150.037" y="371.5" style="fill:#6C8796;" width="16.532" height="124.479"/>
<path style="fill:#A5B8C4;" d="M500.852,83.73H338.079c-6.157,0-11.148,4.994-11.148,11.151v31.268l-22.854,13.2
	c-1.724,0.996-2.787,2.837-2.787,4.826c0,1.994,1.063,3.835,2.787,4.831l22.854,13.2v95.514c0,6.16,4.991,11.153,11.148,11.153
	h162.772c6.157,0,11.148-4.994,11.148-11.153V94.881C512,88.724,507.008,83.73,500.852,83.73z"/>
<g>
	<rect x="118.168" y="300.907" style="fill:#FFE5BB;" width="80.269" height="45.119"/>
	<path style="fill:#FFE5BB;" d="M50.155,176.083c-1.578-0.264-3.195-0.41-4.847-0.41c-16.084,0-29.122,13.044-29.122,29.137
		c0,16.087,13.038,29.133,29.122,29.133c1.653,0,3.269-0.145,4.847-0.41V176.083z"/>
	<path style="fill:#FFE5BB;" d="M271.297,175.673c-1.652,0-3.271,0.145-4.848,0.41v57.451c1.578,0.264,3.196,0.41,4.848,0.41
		c16.083,0,29.122-13.045,29.122-29.133C300.42,188.717,287.38,175.673,271.297,175.673z"/>
</g>
<path style="fill:#F4D6AB;" d="M271.036,209.356c0,55.613-45.064,100.694-100.655,100.694h-24.157
	c-55.592,0-100.656-45.082-100.656-100.694v-92.641c0-55.613,45.064-100.696,100.656-100.696h24.157
	c55.591,0,100.655,45.083,100.655,100.696V209.356z"/>
<path style="fill:#8C6239;" d="M170.381,16.02h-24.157c-55.592,0-100.656,45.083-100.656,100.696v20.249
	c8.594,6.13,19.106,9.747,30.468,9.747c16.662,0,31.503-7.768,41.132-19.868c9.631,12.1,24.47,19.868,41.134,19.868
	c16.663,0,31.504-7.768,41.132-19.868c9.63,12.1,24.472,19.868,41.133,19.868c11.363,0,21.873-3.616,30.468-9.747v-20.249
	C271.036,61.103,225.971,16.02,170.381,16.02z"/>
<path style="fill:#E84731;" d="M419.595,227.496c-1.69,0.006-3.311-0.668-4.508-1.865l-44.024-44.045
	c-6.223-6.222-9.659-14.504-9.676-23.318c-0.017-8.815,3.391-17.11,9.59-23.356c6.201-6.245,14.456-9.691,23.242-9.71
	c8.784-0.015,17.051,3.402,23.274,9.627l1.935,1.933l1.926-1.94c6.201-6.245,14.453-9.691,23.241-9.71
	c8.784-0.015,17.052,3.402,23.275,9.627c6.223,6.222,9.662,14.502,9.678,23.315c0.016,8.817-3.391,17.112-9.592,23.356
	l-43.862,44.209C422.903,226.815,421.285,227.494,419.595,227.496z"/>
<path style="opacity:0.1;enable-background:new    ;" d="M34.718,490.943v-79.051c0-22.112,17.984-40.104,40.089-40.104
	L40.089,371.5C17.984,371.499,0,389.491,0,411.604v79.051c0,2.939,2.382,5.321,5.321,5.321h33.065
	C36.261,495.277,34.718,493.299,34.718,490.943z"/>
<path style="opacity:0.1;enable-background:new    ;" d="M68.002,209.356v-92.641c0-55.613,45.064-100.696,100.656-100.696h-22.434
	c-55.592,0-100.656,45.083-100.656,100.696v92.641c0,55.613,45.064,100.694,100.656,100.694h22.434
	C113.066,310.05,68.002,264.969,68.002,209.356z"/>
<g style="opacity:0.1;">
	<path d="M442.743,125.585l0.435-0.437c-0.275,0.01-0.548,0.032-0.821,0.049L442.743,125.585z"/>
	<path d="M394.379,170.41c-6.223-6.222-9.66-14.504-9.676-23.318c-0.015-8.126,2.887-15.81,8.199-21.853
		c-8.29,0.341-16.032,3.743-21.923,9.674c-6.199,6.245-9.606,14.541-9.59,23.356c0.017,8.815,3.452,17.096,9.676,23.318
		l44.024,44.045c1.195,1.197,2.818,1.871,4.508,1.865c1.69-0.002,3.307-0.679,4.499-1.882l12.683-12.781L394.379,170.41z"/>
</g>
<g>
	<path style="fill:#684223;" d="M111.124,211.034c-4.565,0-8.266-3.7-8.266-8.267v-14.565c0-4.565,3.7-8.265,8.266-8.265
		c4.565,0,8.266,3.7,8.266,8.265v14.565C119.39,207.334,115.689,211.034,111.124,211.034z"/>
	<path style="fill:#684223;" d="M205.48,211.034c-4.565,0-8.266-3.7-8.266-8.267v-14.565c0-4.565,3.701-8.265,8.266-8.265
		s8.266,3.7,8.266,8.265v14.565C213.746,207.334,210.045,211.034,205.48,211.034z"/>
</g>
<path style="fill:#FFFFFF;" d="M145.553,278.257c-13.123,0-23.798-10.678-23.798-23.806v-6.804c0-2.347,1.903-4.251,4.249-4.251
	H190.6c2.347,0,4.25,1.904,4.25,4.251v6.804c0,13.129-10.676,23.806-23.799,23.806H145.553z"/>
<path style="fill:#8CA3AF;" d="M201.575,418.659c-2.417,0-4.688-0.94-6.397-2.651l-51.177-51.21
	c-3.527-3.529-3.527-9.271,0.001-12.802l12.382-12.389c1.001-1.002,2.361-1.565,3.778-1.565h49.343
	c12.119,0,21.977,9.865,21.977,21.992l0.136,30.077c0.006,1.424-0.557,2.792-1.564,3.8l-22.083,22.098
	C206.261,417.718,203.99,418.659,201.575,418.659z"/>
<path style="fill:#79919B;" d="M114.881,418.659c-2.417,0-4.688-0.943-6.397-2.651l-21.946-21.964
	c-1.001-1.002-1.563-2.361-1.563-3.775v-30.237c0-12.126,9.859-21.992,21.975-21.992h49.343c1.418,0,2.776,0.563,3.778,1.565
	l12.383,12.389c3.529,3.531,3.528,9.273-0.001,12.802l-51.175,51.21C119.568,417.718,117.296,418.659,114.881,418.659z"/>
<path style="opacity:0.1;enable-background:new    ;" d="M103.698,394.044c-1.001-1.002-1.563-2.361-1.563-3.775v-30.237
	c0-12.126,9.859-21.992,21.975-21.992h-17.159c-12.118,0-21.975,9.865-21.975,21.992v30.237c0,1.414,0.562,2.773,1.563,3.775
	l21.946,21.964c1.707,1.708,3.98,2.651,6.397,2.651c2.415,0,4.686-0.94,6.398-2.651l2.183-2.184L103.698,394.044z"/>
</svg>