<?xml version="1.0" encoding="iso-8859-1"?>
<!-- Uploaded to: SVG Repo, www.svgrepo.com, Generator: SVG Repo Mixer Tools -->
<svg height="800px" width="800px" version="1.1" id="Layer_1" xmlns="http://www.w3.org/2000/svg" xmlns:xlink="http://www.w3.org/1999/xlink" 
	 viewBox="0 0 512 512" xml:space="preserve">
<path style="fill:#FFAA99;" d="M500.855,83.326H338.129c-6.154,0-11.145,4.993-11.145,11.15v31.256l-22.848,13.196
	c-1.723,0.996-2.787,2.837-2.787,4.827c0,1.993,1.064,3.832,2.787,4.828l22.848,13.196v95.487c0,6.158,4.99,11.15,11.145,11.15
	h162.726c6.154,0,11.145-4.991,11.145-11.15V94.477C512,88.319,507.01,83.326,500.855,83.326z"/>
<path style="fill:#E84731;" d="M419.622,227.052c-1.689,0.004-3.31-0.668-4.507-1.864l-44.01-44.035
	c-6.221-6.22-9.656-14.499-9.673-23.311c-0.016-8.812,3.39-17.105,9.588-23.347c6.2-6.245,14.452-9.69,23.233-9.708
	c8.783-0.015,17.047,3.401,23.269,9.624l1.934,1.931l1.927-1.939c6.2-6.243,14.448-9.688,23.232-9.706
	c8.783-0.015,17.048,3.4,23.27,9.622c6.221,6.22,9.658,14.499,9.676,23.309c0.016,8.814-3.39,17.107-9.589,23.349l-43.851,44.195
	C422.929,226.372,421.31,227.05,419.622,227.052z"/>
<path style="opacity:0.1;enable-background:new    ;" d="M435.343,211.346c-1.689,0.004-3.31-0.669-4.507-1.864l-44.011-44.035
	c-6.221-6.22-9.656-14.499-9.673-23.311c-0.008-4.994,1.084-9.821,3.158-14.202c-3.407,1.608-6.554,3.803-9.291,6.561
	c-6.198,6.242-9.603,14.536-9.588,23.347c0.017,8.812,3.451,17.089,9.673,23.311l44.01,44.035c1.197,1.196,2.818,1.868,4.507,1.864
	c1.689-0.002,3.307-0.68,4.498-1.882l14.891-15.009C437.945,210.921,436.667,211.344,435.343,211.346z"/>
<path style="fill:#FFE5BB;" d="M182.2,356.47v-42.961h-80.246v42.961c-42.069,2.807-75.021,38.113-75.021,80.382v56.297
	c0,3.05,2.469,5.519,5.509,5.519h219.263c3.045,0,5.511-2.469,5.511-5.519v-56.297C257.217,394.583,224.267,359.277,182.2,356.47z"
	/>
<path style="fill:#F4D6AB;" d="M254.78,222.532c0,55.701-45.051,100.856-100.625,100.856h-24.151
	c-55.576,0-100.63-45.154-100.63-100.856v-92.788c0-55.701,45.054-100.857,100.63-100.857h24.151
	c55.574,0,100.625,45.156,100.625,100.857V222.532z"/>
<path style="opacity:0.1;enable-background:new    ;" d="M57.473,222.532v-92.788c0-55.024,43.972-99.727,98.617-100.807
	c-0.673-0.013-1.336-0.051-2.012-0.051h-24.151c-55.577,0-100.629,45.156-100.629,100.857v92.788
	c0,55.701,45.051,100.856,100.629,100.856h24.151c0.675,0,1.34-0.037,2.012-0.051C101.445,322.258,57.473,277.557,57.473,222.532z"
	/>
<g>
	<path style="fill:#684223;" d="M94.838,226.311c-5.733,0-10.38-4.647-10.38-10.379v-14.588c0-5.732,4.646-10.38,10.38-10.38
		c5.731,0,10.379,4.647,10.379,10.38v14.588C105.216,221.665,100.569,226.311,94.838,226.311z"/>
	<path style="fill:#684223;" d="M189.163,226.311c-5.731,0-10.38-4.647-10.38-10.379v-14.588c0-5.732,4.648-10.38,10.38-10.38
		c5.734,0,10.381,4.647,10.381,10.38v14.588C199.544,221.665,194.897,226.311,189.163,226.311z"/>
</g>
<path style="fill:#FFFFFF;" d="M129.253,291.543c-13.118,0-23.788-10.696-23.788-23.846v-6.813c0-2.352,1.9-4.259,4.245-4.259
	h64.579c2.345,0,4.246,1.907,4.246,4.259v6.813c0,13.15-10.671,23.846-23.787,23.846H129.253z"/>
<path style="fill:#E84731;" d="M32.443,498.668h219.263c3.043,0,5.505-2.463,5.511-5.507v-17.695
	c0-32.301-25.991-58.487-58.053-58.487c-28.472,0-52.138,20.653-57.092,47.899c-4.944-27.246-28.611-47.899-57.085-47.899
	c-32.062,0-58.053,26.185-58.053,58.487v17.682C26.933,496.199,29.403,498.668,32.443,498.668z"/>
<path style="fill:#C69C6D;" d="M147.46,13.332h-10.767C61.199,13.332,0,74.596,0,150.172v191.791
	c0,31.043,10.334,59.668,27.735,82.629c5.643-36.646,36.149-65.592,74.072-68.121v-37.059c-41.929-12.172-72.58-50.936-72.58-96.88
	v-58.155h141.787l16.009-27.786l16.012,27.786h51.596v58.155c0,45.944-30.654,84.709-72.577,96.88v37.059
	c38.032,2.535,68.606,31.642,74.123,68.437c17.547-23.014,27.976-51.758,27.976-82.945V150.172
	C284.154,74.596,222.953,13.332,147.46,13.332z"/>
<path style="fill:#FFC529;" d="M141.997,395.832c24.703,0,45.901-15.326,54.718-37.008c-4.558-1.174-9.273-1.959-14.112-2.311
	c-7.387,15.08-22.81,25.48-40.606,25.48c-17.793,0-33.213-10.4-40.597-25.48c-4.84,0.352-9.555,1.137-14.112,2.311
	C96.102,380.507,117.299,395.832,141.997,395.832z"/>
<path style="fill:#CC961D;" d="M159.072,391.592c0,9.699-7.85,17.563-17.528,17.563l0,0c-9.682,0-17.532-7.863-17.532-17.563l0,0
	c0-9.699,7.851-17.564,17.532-17.564l0,0C151.223,374.029,159.072,381.892,159.072,391.592L159.072,391.592z"/>
<g>
	<path style="fill:#FF9C88;" d="M75.703,252.028H60.277c-5.733,0-10.38-4.648-10.38-10.379c0-5.732,4.646-10.38,10.38-10.38h15.426
		c5.733,0,10.38,4.647,10.38,10.38C86.083,247.381,81.436,252.028,75.703,252.028z"/>
	<path style="fill:#FF9C88;" d="M225.553,252.028h-15.426c-5.732,0-10.38-4.648-10.38-10.379c0-5.732,4.647-10.38,10.38-10.38
		h15.426c5.732,0,10.381,4.647,10.381,10.38C235.934,247.381,231.286,252.028,225.553,252.028z"/>
</g>
</svg>